<svg xmlns="http://www.w3.org/2000/svg" fill="currentColor" aria-hidden="true" class="wpds-c-jlBemH" viewBox="0 0 16 16"><path d="M7 3a1 1 0 1 1 2 0 1 1 0 0 1-2 0"/><path fill-rule="evenodd" d="M2.32 12c-.178.608-.32 1-.32 1h12s-.142-.392-.32-1c-.292-1.004-.68-2.6-.68-4 0-2.761-1.686-5-5-5S3 5.239 3 8c0 1.4-.388 2.996-.68 4m1.04 0h9.28q-.053-.195-.108-.407C12.274 10.595 12 9.25 12 8c0-1.182-.36-2.173-.992-2.857C10.388 4.471 9.418 4 8 4c-1.419 0-2.388.471-3.008 1.143C4.36 5.827 4 6.818 4 8c0 1.25-.274 2.595-.532 3.593q-.054.213-.109.407" clip-rule="evenodd"/><path d="M6 13a2 2 0 1 0 4 0H9a1 1 0 1 1-2 0z"/></svg>